<mxfile host="app.diagrams.net" agent="Mozilla/5.0 (Windows NT 10.0; Win64; x64; rv:141.0) Gecko/20100101 Firefox/141.0" version="27.1.6">
  <diagram name="Page-1" id="JI3X6O-s760ffvM923Gw">
    <mxGraphModel dx="3166" dy="779" grid="1" gridSize="10" guides="1" tooltips="1" connect="1" arrows="1" fold="1" page="1" pageScale="1" pageWidth="1100" pageHeight="600" math="0" shadow="0">
      <root>
        <mxCell id="0" />
        <mxCell id="1" parent="0" />
        <mxCell id="Tgi34v9Rim2OoH0ApFjI-2" value="" style="endArrow=none;html=1;rounded=0;fillColor=#e3c800;strokeColor=#B09500;strokeWidth=11;" edge="1" parent="1" source="Tgi34v9Rim2OoH0ApFjI-20">
          <mxGeometry width="50" height="50" relative="1" as="geometry">
            <mxPoint x="21" y="300" as="sourcePoint" />
            <mxPoint x="810" y="300" as="targetPoint" />
          </mxGeometry>
        </mxCell>
        <mxCell id="Tgi34v9Rim2OoH0ApFjI-3" value="" style="endArrow=none;html=1;rounded=0;fillColor=#e3c800;strokeColor=#B09500;strokeWidth=11;entryX=0.014;entryY=0.828;entryDx=0;entryDy=0;entryPerimeter=0;" edge="1" parent="1">
          <mxGeometry width="50" height="50" relative="1" as="geometry">
            <mxPoint x="20" y="300" as="sourcePoint" />
            <mxPoint x="20.272460000000137" y="490.24" as="targetPoint" />
          </mxGeometry>
        </mxCell>
        <mxCell id="Tgi34v9Rim2OoH0ApFjI-4" value="" style="endArrow=none;html=1;rounded=0;fillColor=#e3c800;strokeColor=#B09500;strokeWidth=11;entryX=0.014;entryY=0.828;entryDx=0;entryDy=0;entryPerimeter=0;" edge="1" parent="1">
          <mxGeometry width="50" height="50" relative="1" as="geometry">
            <mxPoint x="270" y="300" as="sourcePoint" />
            <mxPoint x="270" y="490" as="targetPoint" />
          </mxGeometry>
        </mxCell>
        <mxCell id="Tgi34v9Rim2OoH0ApFjI-5" value="" style="endArrow=none;html=1;rounded=0;fillColor=#e3c800;strokeColor=#B09500;strokeWidth=11;entryX=0.014;entryY=0.828;entryDx=0;entryDy=0;entryPerimeter=0;" edge="1" parent="1">
          <mxGeometry width="50" height="50" relative="1" as="geometry">
            <mxPoint x="540" y="300" as="sourcePoint" />
            <mxPoint x="540" y="490" as="targetPoint" />
          </mxGeometry>
        </mxCell>
        <mxCell id="Tgi34v9Rim2OoH0ApFjI-6" value="" style="endArrow=none;html=1;rounded=0;fillColor=#e3c800;strokeColor=#B09500;strokeWidth=11;entryX=0.014;entryY=0.828;entryDx=0;entryDy=0;entryPerimeter=0;" edge="1" parent="1">
          <mxGeometry width="50" height="50" relative="1" as="geometry">
            <mxPoint x="810" y="300" as="sourcePoint" />
            <mxPoint x="810" y="490" as="targetPoint" />
          </mxGeometry>
        </mxCell>
        <mxCell id="Tgi34v9Rim2OoH0ApFjI-7" value="" style="endArrow=none;html=1;rounded=0;fillColor=#e3c800;strokeColor=#B09500;strokeWidth=11;entryX=0.014;entryY=0.828;entryDx=0;entryDy=0;entryPerimeter=0;" edge="1" parent="1">
          <mxGeometry width="50" height="50" relative="1" as="geometry">
            <mxPoint x="810" y="120" as="sourcePoint" />
            <mxPoint x="810" y="310" as="targetPoint" />
          </mxGeometry>
        </mxCell>
        <mxCell id="Tgi34v9Rim2OoH0ApFjI-8" value="" style="endArrow=none;html=1;rounded=0;fillColor=#e3c800;strokeColor=#B09500;strokeWidth=11;entryX=0.014;entryY=0.828;entryDx=0;entryDy=0;entryPerimeter=0;" edge="1" parent="1">
          <mxGeometry width="50" height="50" relative="1" as="geometry">
            <mxPoint x="540" y="110" as="sourcePoint" />
            <mxPoint x="540" y="300" as="targetPoint" />
          </mxGeometry>
        </mxCell>
        <mxCell id="Tgi34v9Rim2OoH0ApFjI-9" value="" style="endArrow=none;html=1;rounded=0;fillColor=#e3c800;strokeColor=#B09500;strokeWidth=11;entryX=0.014;entryY=0.828;entryDx=0;entryDy=0;entryPerimeter=0;" edge="1" parent="1">
          <mxGeometry width="50" height="50" relative="1" as="geometry">
            <mxPoint x="270" y="110" as="sourcePoint" />
            <mxPoint x="270" y="300" as="targetPoint" />
          </mxGeometry>
        </mxCell>
        <mxCell id="Tgi34v9Rim2OoH0ApFjI-10" value="" style="endArrow=none;html=1;rounded=0;fillColor=#e3c800;strokeColor=#B09500;strokeWidth=11;entryX=0.014;entryY=0.828;entryDx=0;entryDy=0;entryPerimeter=0;" edge="1" parent="1">
          <mxGeometry width="50" height="50" relative="1" as="geometry">
            <mxPoint x="20" y="110" as="sourcePoint" />
            <mxPoint x="20" y="300" as="targetPoint" />
          </mxGeometry>
        </mxCell>
        <mxCell id="Tgi34v9Rim2OoH0ApFjI-11" value="" style="rounded=0;whiteSpace=wrap;html=1;fillColor=light-dark(#e3e3e3, #2a2a2a);fontColor=#000000;strokeColor=#B09500;strokeWidth=7;" vertex="1" parent="1">
          <mxGeometry y="50" width="150" height="80" as="geometry" />
        </mxCell>
        <mxCell id="Tgi34v9Rim2OoH0ApFjI-12" value="" style="rounded=0;whiteSpace=wrap;html=1;fillColor=#E3E3E3;fontColor=#000000;strokeColor=#B09500;strokeWidth=7;" vertex="1" parent="1">
          <mxGeometry x="210" y="50" width="150" height="80" as="geometry" />
        </mxCell>
        <mxCell id="Tgi34v9Rim2OoH0ApFjI-13" value="" style="rounded=0;whiteSpace=wrap;html=1;fillColor=#E3E3E3;fontColor=#000000;strokeColor=#B09500;strokeWidth=7;" vertex="1" parent="1">
          <mxGeometry x="490" y="50" width="150" height="80" as="geometry" />
        </mxCell>
        <mxCell id="Tgi34v9Rim2OoH0ApFjI-14" value="" style="rounded=0;whiteSpace=wrap;html=1;fillColor=#E3E3E3;fontColor=#000000;strokeColor=#B09500;strokeWidth=7;" vertex="1" parent="1">
          <mxGeometry x="760" y="50" width="150" height="80" as="geometry" />
        </mxCell>
        <mxCell id="Tgi34v9Rim2OoH0ApFjI-15" value="" style="rounded=0;whiteSpace=wrap;html=1;strokeColor=#FF8000;strokeWidth=8;" vertex="1" parent="1">
          <mxGeometry x="820" y="210" width="150" height="190" as="geometry" />
        </mxCell>
        <mxCell id="Tgi34v9Rim2OoH0ApFjI-16" value="" style="rounded=0;whiteSpace=wrap;html=1;fillColor=#E3E3E3;fontColor=#000000;strokeColor=#B09500;strokeWidth=7;" vertex="1" parent="1">
          <mxGeometry x="760" y="470" width="150" height="80" as="geometry" />
        </mxCell>
        <mxCell id="Tgi34v9Rim2OoH0ApFjI-17" value="" style="rounded=0;whiteSpace=wrap;html=1;fillColor=#E3E3E3;fontColor=#000000;strokeColor=#B09500;strokeWidth=7;" vertex="1" parent="1">
          <mxGeometry x="510" y="470" width="150" height="80" as="geometry" />
        </mxCell>
        <mxCell id="Tgi34v9Rim2OoH0ApFjI-18" value="" style="rounded=0;whiteSpace=wrap;html=1;fillColor=#E3E3E3;fontColor=#000000;strokeColor=#B09500;strokeWidth=7;" vertex="1" parent="1">
          <mxGeometry x="250" y="470" width="150" height="80" as="geometry" />
        </mxCell>
        <mxCell id="Tgi34v9Rim2OoH0ApFjI-19" value="" style="rounded=0;whiteSpace=wrap;html=1;fillColor=#E3E3E3;fontColor=#000000;strokeColor=#B09500;strokeWidth=7;" vertex="1" parent="1">
          <mxGeometry y="470" width="150" height="80" as="geometry" />
        </mxCell>
        <mxCell id="Tgi34v9Rim2OoH0ApFjI-21" value="" style="endArrow=none;html=1;rounded=0;fillColor=#e3c800;strokeColor=#B09500;strokeWidth=11;" edge="1" parent="1" target="Tgi34v9Rim2OoH0ApFjI-20">
          <mxGeometry width="50" height="50" relative="1" as="geometry">
            <mxPoint x="21" y="300" as="sourcePoint" />
            <mxPoint x="810" y="300" as="targetPoint" />
          </mxGeometry>
        </mxCell>
        <mxCell id="Tgi34v9Rim2OoH0ApFjI-20" value="" style="rounded=0;whiteSpace=wrap;html=1;fillColor=#E3E3E3;fontColor=#000000;strokeColor=#009900;strokeWidth=7;" vertex="1" parent="1">
          <mxGeometry x="330" y="210" width="190" height="180" as="geometry" />
        </mxCell>
        <mxCell id="Tgi34v9Rim2OoH0ApFjI-22" value="&lt;p&gt;&lt;span style=&quot;color: rgb(40, 40, 40);&quot;&gt;&lt;b&gt;&lt;font face=&quot;Russo One&quot; data-font-src=&quot;https://fonts.googleapis.com/css?family=+Russo+One+&quot;&gt;LOADING BAY 1&lt;/font&gt;&lt;/b&gt;&lt;/span&gt;&lt;/p&gt;" style="text;html=1;align=center;verticalAlign=middle;whiteSpace=wrap;rounded=0;fontSize=23;" vertex="1" parent="1">
          <mxGeometry x="15" y="75" width="120" height="30" as="geometry" />
        </mxCell>
        <mxCell id="Tgi34v9Rim2OoH0ApFjI-23" value="&lt;p&gt;&lt;span style=&quot;color: rgb(40, 40, 40);&quot;&gt;&lt;b&gt;&lt;font face=&quot;Russo One&quot; data-font-src=&quot;https://fonts.googleapis.com/css?family=+Russo+One+&quot;&gt;LOADING BAY 2&lt;/font&gt;&lt;/b&gt;&lt;/span&gt;&lt;/p&gt;" style="text;html=1;align=center;verticalAlign=middle;whiteSpace=wrap;rounded=0;fontSize=23;" vertex="1" parent="1">
          <mxGeometry x="225" y="75" width="120" height="30" as="geometry" />
        </mxCell>
        <mxCell id="Tgi34v9Rim2OoH0ApFjI-25" value="&lt;p&gt;&lt;span style=&quot;color: rgb(40, 40, 40);&quot;&gt;&lt;b&gt;&lt;font face=&quot;Russo One&quot; data-font-src=&quot;https://fonts.googleapis.com/css?family=+Russo+One+&quot;&gt;LOADING BAY 3&lt;/font&gt;&lt;/b&gt;&lt;/span&gt;&lt;/p&gt;" style="text;html=1;align=center;verticalAlign=middle;whiteSpace=wrap;rounded=0;fontSize=23;" vertex="1" parent="1">
          <mxGeometry x="505" y="70" width="120" height="30" as="geometry" />
        </mxCell>
        <mxCell id="Tgi34v9Rim2OoH0ApFjI-26" value="&lt;p&gt;&lt;span style=&quot;color: rgb(40, 40, 40);&quot;&gt;&lt;b&gt;&lt;font face=&quot;Russo One&quot; data-font-src=&quot;https://fonts.googleapis.com/css?family=+Russo+One+&quot;&gt;LOADING BAY 4&lt;/font&gt;&lt;/b&gt;&lt;/span&gt;&lt;/p&gt;" style="text;html=1;align=center;verticalAlign=middle;whiteSpace=wrap;rounded=0;fontSize=23;" vertex="1" parent="1">
          <mxGeometry x="775" y="75" width="120" height="30" as="geometry" />
        </mxCell>
        <mxCell id="Tgi34v9Rim2OoH0ApFjI-27" value="&lt;p&gt;&lt;span style=&quot;color: rgb(40, 40, 40);&quot;&gt;&lt;b&gt;&lt;font face=&quot;Russo One&quot; data-font-src=&quot;https://fonts.googleapis.com/css?family=+Russo+One+&quot;&gt;LOADING BAY 5&lt;/font&gt;&lt;/b&gt;&lt;/span&gt;&lt;/p&gt;" style="text;html=1;align=center;verticalAlign=middle;whiteSpace=wrap;rounded=0;fontSize=23;" vertex="1" parent="1">
          <mxGeometry x="15" y="495" width="120" height="30" as="geometry" />
        </mxCell>
        <mxCell id="Tgi34v9Rim2OoH0ApFjI-28" value="&lt;p&gt;&lt;span style=&quot;color: rgb(40, 40, 40);&quot;&gt;&lt;b&gt;&lt;font face=&quot;Russo One&quot; data-font-src=&quot;https://fonts.googleapis.com/css?family=+Russo+One+&quot;&gt;LOADING BAY 6&lt;/font&gt;&lt;/b&gt;&lt;/span&gt;&lt;/p&gt;" style="text;html=1;align=center;verticalAlign=middle;whiteSpace=wrap;rounded=0;fontSize=23;" vertex="1" parent="1">
          <mxGeometry x="265" y="495" width="120" height="30" as="geometry" />
        </mxCell>
        <mxCell id="Tgi34v9Rim2OoH0ApFjI-29" value="&lt;p&gt;&lt;span style=&quot;color: rgb(40, 40, 40);&quot;&gt;&lt;b&gt;&lt;font face=&quot;Russo One&quot; data-font-src=&quot;https://fonts.googleapis.com/css?family=+Russo+One+&quot;&gt;LOADING BAY 7&lt;/font&gt;&lt;/b&gt;&lt;/span&gt;&lt;/p&gt;" style="text;html=1;align=center;verticalAlign=middle;whiteSpace=wrap;rounded=0;fontSize=23;" vertex="1" parent="1">
          <mxGeometry x="525" y="495" width="120" height="30" as="geometry" />
        </mxCell>
        <mxCell id="Tgi34v9Rim2OoH0ApFjI-30" value="&lt;p&gt;&lt;span style=&quot;color: rgb(40, 40, 40);&quot;&gt;&lt;b&gt;&lt;font face=&quot;Russo One&quot; data-font-src=&quot;https://fonts.googleapis.com/css?family=+Russo+One+&quot;&gt;LOADING BAY 8&lt;/font&gt;&lt;/b&gt;&lt;/span&gt;&lt;/p&gt;" style="text;html=1;align=center;verticalAlign=middle;whiteSpace=wrap;rounded=0;fontSize=23;" vertex="1" parent="1">
          <mxGeometry x="775" y="495" width="120" height="30" as="geometry" />
        </mxCell>
        <mxCell id="Tgi34v9Rim2OoH0ApFjI-31" value="MAINTENANCE" style="text;html=1;align=center;verticalAlign=middle;whiteSpace=wrap;rounded=0;fontSize=17;fontFamily=Russo One;fontSource=https%3A%2F%2Ffonts.googleapis.com%2Fcss%3Ffamily%3DRusso%2BOne;" vertex="1" parent="1">
          <mxGeometry x="835" y="210" width="120" height="30" as="geometry" />
        </mxCell>
        <mxCell id="Tgi34v9Rim2OoH0ApFjI-32" value="PACKING" style="text;html=1;align=center;verticalAlign=middle;whiteSpace=wrap;rounded=0;fontSize=17;fontFamily=Russo One;fontSource=https%3A%2F%2Ffonts.googleapis.com%2Fcss%3Ffamily%3DRusso%2BOne;" vertex="1" parent="1">
          <mxGeometry x="370" y="210" width="120" height="30" as="geometry" />
        </mxCell>
      </root>
    </mxGraphModel>
  </diagram>
</mxfile>
